<svg fill="#000000" height="229px" width="229px" version="1.1" id="Layer_1" xmlns="http://www.w3.org/2000/svg" xmlns:xlink="http://www.w3.org/1999/xlink" viewBox="0 0 496 496" xml:space="preserve"><g id="SVGRepo_bgCarrier" stroke-width="0"></g><g id="SVGRepo_tracerCarrier" stroke-linecap="round" stroke-linejoin="round" stroke="#c27aff" stroke-width="12.896"> <g> <g> <g> <path d="M436.32,348.824c18.112-27.76,27.68-59.96,27.68-93.112V240h32v-16h-16.2C475.56,99.776,373.24,0,248,0 S20.44,99.776,16.2,224H0v16h32v15.712c0,33.152,9.568,65.352,27.68,93.112l45.544,69.832c3.584,5.496,7.48,10.704,11.6,15.68 l-70.128,8.768C20.08,446.432,0,469.168,0,496h16c0-18.776,14.048-34.696,32.68-37.024l81.6-10.2 C161.608,478.792,203.464,496,248,496s86.392-17.208,117.72-47.224l81.6,10.2C465.952,461.304,480,477.224,480,496h16 c0-26.832-20.08-49.568-46.696-52.896l-70.128-8.768c4.12-4.976,8.016-10.184,11.6-15.68L436.32,348.824z M33.368,208H408v-16 H35.776C54.592,91.952,142.568,16,248,16s193.408,75.952,212.224,176H424v16h38.632c0.584,5.28,0.968,10.616,1.16,16H32.2 C32.4,218.616,32.776,213.28,33.368,208z M408,240v45.528c0,17.816-10.48,34.088-26.696,41.456l-25.232,11.472 C334.16,348.408,320,370.4,320,394.472C320,419.576,299.576,440,274.472,440h-52.936C196.424,440,176,419.576,176,394.472 c0-24.072-14.16-46.064-36.072-56.016l-25.232-11.472C98.48,319.616,88,303.344,88,285.528V240h72h176H408z M377.368,409.92 C348.76,453.808,300.392,480,248,480c-52.392,0-100.76-26.192-129.368-70.08l-45.544-69.832C56.672,314.92,48,285.752,48,255.712 V240h24v45.528c0,24.072,14.16,46.064,36.072,56.016l25.232,11.472C149.52,360.384,160,376.656,160,394.472 C160,428.4,187.6,456,221.528,456h52.936C308.4,456,336,428.4,336,394.472c0-17.816,10.48-34.088,26.696-41.456l25.232-11.472 C409.84,331.592,424,309.6,424,285.528V240h24v15.712c0,30.04-8.672,59.208-25.088,84.376L377.368,409.92z"></path> <path d="M120,272c0,17.648,17.944,32,40,32c22.056,0,40-14.352,40-32s-17.944-32-40-32C137.944,240,120,254.352,120,272z M160,256c13.008,0,24,7.328,24,16s-10.992,16-24,16s-24-7.328-24-16S146.992,256,160,256z"></path> <path d="M296,272c0,17.648,17.944,32,40,32c22.056,0,40-14.352,40-32s-17.944-32-40-32C313.944,240,296,254.352,296,272z M336,256c13.008,0,24,7.328,24,16s-10.992,16-24,16s-24-7.328-24-16S322.992,256,336,256z"></path> <path d="M192,336l16,0.096c0.096-3.696,1.552-8.096,8-8.096s7.904,4.4,8,8v16h16v-16c0-9.648-6.392-24-24-24 C198.392,312,192,326.352,192,336z"></path> <path d="M272,336.096c0.096-3.696,1.552-8.096,8-8.096s7.904,4.4,8,8.096l8-0.096h8c0-9.648-6.392-24-24-24 c-17.608,0-24,14.352-24,24v16h16V336.096z"></path> <path d="M240,392v14.592c-0.76,0.464-2.92,1.408-8,1.408c-10.736,0-16.808-11.504-16.864-11.624l-14.288,7.2 C201.256,404.416,211.296,424,232,424c7.36,0,12.464-1.48,16-3.536c3.536,2.056,8.64,3.536,16,3.536 c20.704,0,30.744-19.584,31.16-20.424l-14.288-7.2C280.808,396.496,274.736,408,264,408c-5.08,0-7.24-0.944-8-1.408V392H240z"></path> </g> </g> </g> </g><g id="SVGRepo_iconCarrier"> <g> <g> <g> <path d="M436.32,348.824c18.112-27.76,27.68-59.96,27.68-93.112V240h32v-16h-16.2C475.56,99.776,373.24,0,248,0 S20.44,99.776,16.2,224H0v16h32v15.712c0,33.152,9.568,65.352,27.68,93.112l45.544,69.832c3.584,5.496,7.48,10.704,11.6,15.68 l-70.128,8.768C20.08,446.432,0,469.168,0,496h16c0-18.776,14.048-34.696,32.68-37.024l81.6-10.2 C161.608,478.792,203.464,496,248,496s86.392-17.208,117.72-47.224l81.6,10.2C465.952,461.304,480,477.224,480,496h16 c0-26.832-20.08-49.568-46.696-52.896l-70.128-8.768c4.12-4.976,8.016-10.184,11.6-15.68L436.32,348.824z M33.368,208H408v-16 H35.776C54.592,91.952,142.568,16,248,16s193.408,75.952,212.224,176H424v16h38.632c0.584,5.28,0.968,10.616,1.16,16H32.2 C32.4,218.616,32.776,213.28,33.368,208z M408,240v45.528c0,17.816-10.48,34.088-26.696,41.456l-25.232,11.472 C334.16,348.408,320,370.4,320,394.472C320,419.576,299.576,440,274.472,440h-52.936C196.424,440,176,419.576,176,394.472 c0-24.072-14.16-46.064-36.072-56.016l-25.232-11.472C98.48,319.616,88,303.344,88,285.528V240h72h176H408z M377.368,409.92 C348.76,453.808,300.392,480,248,480c-52.392,0-100.76-26.192-129.368-70.08l-45.544-69.832C56.672,314.92,48,285.752,48,255.712 V240h24v45.528c0,24.072,14.16,46.064,36.072,56.016l25.232,11.472C149.52,360.384,160,376.656,160,394.472 C160,428.4,187.6,456,221.528,456h52.936C308.4,456,336,428.4,336,394.472c0-17.816,10.48-34.088,26.696-41.456l25.232-11.472 C409.84,331.592,424,309.6,424,285.528V240h24v15.712c0,30.04-8.672,59.208-25.088,84.376L377.368,409.92z"></path> <path d="M120,272c0,17.648,17.944,32,40,32c22.056,0,40-14.352,40-32s-17.944-32-40-32C137.944,240,120,254.352,120,272z M160,256c13.008,0,24,7.328,24,16s-10.992,16-24,16s-24-7.328-24-16S146.992,256,160,256z"></path> <path d="M296,272c0,17.648,17.944,32,40,32c22.056,0,40-14.352,40-32s-17.944-32-40-32C313.944,240,296,254.352,296,272z M336,256c13.008,0,24,7.328,24,16s-10.992,16-24,16s-24-7.328-24-16S322.992,256,336,256z"></path> <path d="M192,336l16,0.096c0.096-3.696,1.552-8.096,8-8.096s7.904,4.4,8,8v16h16v-16c0-9.648-6.392-24-24-24 C198.392,312,192,326.352,192,336z"></path> <path d="M272,336.096c0.096-3.696,1.552-8.096,8-8.096s7.904,4.4,8,8.096l8-0.096h8c0-9.648-6.392-24-24-24 c-17.608,0-24,14.352-24,24v16h16V336.096z"></path> <path d="M240,392v14.592c-0.76,0.464-2.92,1.408-8,1.408c-10.736,0-16.808-11.504-16.864-11.624l-14.288,7.2 C201.256,404.416,211.296,424,232,424c7.36,0,12.464-1.48,16-3.536c3.536,2.056,8.64,3.536,16,3.536 c20.704,0,30.744-19.584,31.16-20.424l-14.288-7.2C280.808,396.496,274.736,408,264,408c-5.08,0-7.24-0.944-8-1.408V392H240z"></path> </g> </g> </g> </g></svg>